<svg xmlns="http://www.w3.org/2000/svg" width="230" height="50" viewBox="0 0 230 50">
    <g fill="#3C3C3B" fill-rule="evenodd">
        <path d="M68.075 22.981V34.23h-5.496V23.481c0-1.831-.878-3.004-2.635-3.004-1.832 0-2.86 1.28-2.86 3.444v10.331H51.59V23.505c0-1.832-.879-3.005-2.636-3.005-1.832 0-2.86 1.28-2.86 3.444v10.332h-5.495V15.91h5.495v1.682c.846-1.238 2.458-2.172 4.912-2.172 2.163 0 3.77.878 4.799 2.415 1.023-1.48 2.71-2.415 5.313-2.415 4.21 0 6.958 2.98 6.958 7.56z"/>
        <path fill-rule="nonzero" d="M70.766 25.07c-.017-3.931 2.338-7.485 5.965-9.001 3.628-1.516 7.811-.696 10.597 2.078 2.786 2.774 3.624 6.954 2.124 10.587-1.5 3.634-5.044 6.004-8.975 6.004-2.577.03-5.057-.979-6.884-2.797-1.826-1.818-2.844-4.294-2.827-6.87zm13.92 0c0-2.603-1.83-4.322-4.205-4.322-2.374 0-4.205 1.72-4.205 4.322 0 2.603 1.831 4.323 4.205 4.323s4.206-1.725 4.206-4.323zM92.028 25.07c-.017-3.931 2.338-7.485 5.965-9.001 3.627-1.516 7.81-.696 10.597 2.078 2.785 2.774 3.624 6.954 2.123 10.587-1.5 3.634-5.043 6.004-8.975 6.004-2.576.03-5.057-.979-6.883-2.797-1.826-1.818-2.845-4.294-2.827-6.87zm13.92 0c0-2.603-1.831-4.322-4.205-4.322s-4.206 1.72-4.206 4.322c0 2.603 1.832 4.323 4.206 4.323 2.374 0 4.206-1.725 4.206-4.323z"/>
        <path d="M131.87 22.981V34.23h-5.496V23.785c0-2.271-1.43-3.332-3.192-3.332-2.014 0-3.406 1.173-3.406 3.771V34.23h-5.496V15.911h5.496v1.72c.99-1.355 2.803-2.234 5.238-2.234 3.701.024 6.855 2.636 6.855 7.584zM149.612 28.734c0 4.205-3.663 6.004-7.621 6.004-3.664 0-6.449-1.402-7.874-4.36l4.762-2.71c.395 1.366 1.693 2.269 3.112 2.164 1.317 0 1.976-.402 1.976-1.136 0-2.014-9.01-.934-9.01-7.29 0-3.995 3.36-5.985 7.179-5.985 2.971 0 5.607 1.317 7.144 3.92l-4.673 2.528c-.514-.934-1.247-1.612-2.457-1.612-.935 0-1.538.364-1.538 1.023-.014 2.084 9 .683 9 7.454zM159.374 21.187v6.481c0 1.575 1.355 1.725 3.77 1.575v4.986c-7.177.734-9.265-1.43-9.265-6.542v-6.5h-2.944V15.91h2.93V12.43l5.495-1.65v5.14h3.77v5.267h-3.756zM177.57 15.542v6.229c-2.27-.364-5.495.551-5.495 4.178v8.28h-5.496V15.911h5.496v3.271c.733-2.467 3.187-3.64 5.495-3.64z"/>
        <path fill-rule="nonzero" d="M179.014 11c0-1.822 1.477-3.3 3.3-3.3 1.821 0 3.298 1.478 3.298 3.3 0 1.822-1.477 3.3-3.299 3.3-1.816-.016-3.284-1.484-3.299-3.3zm.551 4.911h5.482V34.23h-5.482V15.911zM207.56 8.584V34.23h-5.495v-1.724c-1.21 1.402-3.004 2.233-5.458 2.233-4.799 0-8.757-4.205-8.757-9.668 0-5.463 3.958-9.65 8.757-9.65 2.454 0 4.248.842 5.458 2.234v-9.07h5.496zm-5.495 16.486c0-2.748-1.831-4.472-4.36-4.472-2.527 0-4.36 1.724-4.36 4.472s1.833 4.467 4.36 4.467c2.529 0 4.36-1.72 4.36-4.467zM220.7 29.832c1.317.035 2.589-.472 3.52-1.402l4.397 2.528c-1.795 2.49-4.51 3.771-7.986 3.771-6.267 0-10.15-4.206-10.15-9.668 0-5.463 3.958-9.64 9.743-9.64 5.35 0 9.309 4.14 9.309 9.672.002.738-.072 1.474-.22 2.197h-13.01c.697 1.883 2.389 2.542 4.398 2.542zm3.375-6.668c-.589-2.127-2.239-2.893-3.888-2.893-2.084 0-3.477 1.023-3.99 2.893h7.878z"/>
        <path d="M11.266 15.883H16.738V34.247H11.266zM.322 15.883H5.7940000000000005V49.92H.322zM22.051.21H27.523V34.247H22.051z"/>
    </g>
</svg>
